<?xml version="1.0" encoding="UTF-8" standalone="no"?>
<!-- Created with Inkscape (http://www.inkscape.org/) -->

<svg
   xmlns:dc="http://purl.org/dc/elements/1.1/"
   xmlns:cc="http://creativecommons.org/ns#"
   xmlns:rdf="http://www.w3.org/1999/02/22-rdf-syntax-ns#"
   xmlns:svg="http://www.w3.org/2000/svg"
   xmlns="http://www.w3.org/2000/svg"
   xmlns:sodipodi="http://sodipodi.sourceforge.net/DTD/sodipodi-0.dtd"
   xmlns:inkscape="http://www.inkscape.org/namespaces/inkscape"
   inkscape:version="0.92.4 (f8dce91, 2019-08-02)"
   inkscape:export-ydpi="96"
   inkscape:export-xdpi="96"
   inkscape:export-filename="/home/tahina/Documents/Project web/CyberDiam/DIAMTECH1.svg.png"
   width="1920"
   height="920"
   viewBox="0 0 508 920"
   version="1.1"
   id="svg8"
   sodipodi:docname="DIAMTECH4.svg">
  <defs
     id="defs2">
    <filter
       inkscape:collect="always"
       style="color-interpolation-filters:sRGB"
       id="filter849"
       x="-0.015062854"
       width="1.0301257"
       y="-0.052001027"
       height="1.1040021">
      <feGaussianBlur
         inkscape:collect="always"
         stdDeviation="0.540831"
         id="feGaussianBlur851" />
    </filter>
    <filter
       inkscape:collect="always"
       style="color-interpolation-filters:sRGB"
       id="filter1520"
       x="-0.0075314271"
       width="1.0150629"
       y="-0.026000514"
       height="1.052001">
      <feGaussianBlur
         inkscape:collect="always"
         stdDeviation="0.2704155"
         id="feGaussianBlur1522" />
    </filter>
    <filter
       inkscape:collect="always"
       style="color-interpolation-filters:sRGB"
       id="filter1863"
       x="-0.0066374641"
       width="1.0132749"
       y="-0.015898369"
       height="1.0317967">
      <feGaussianBlur
         inkscape:collect="always"
         stdDeviation="0.16608241"
         id="feGaussianBlur1865" />
    </filter>
    <filter
       inkscape:collect="always"
       style="color-interpolation-filters:sRGB"
       id="filter1867"
       x="-0.01056922"
       width="1.0211384"
       y="-0.013878807"
       height="1.0277576">
      <feGaussianBlur
         inkscape:collect="always"
         stdDeviation="0.84631716"
         id="feGaussianBlur1869" />
    </filter>
  </defs>
  <sodipodi:namedview
     id="base"
     pagecolor="#fffff7"
     bordercolor="#666666"
     borderopacity="1.0"
     inkscape:pageopacity="0"
     inkscape:pageshadow="2"
     inkscape:zoom="0.7"
     inkscape:cx="91.077347"
     inkscape:cy="631.18513"
     inkscape:document-units="px"
     inkscape:current-layer="layer1"
     showgrid="false"
     units="px"
     inkscape:snap-intersection-paths="true"
     inkscape:object-nodes="false"
     inkscape:window-width="1600"
     inkscape:window-height="846"
     inkscape:window-x="0"
     inkscape:window-y="25"
     inkscape:window-maximized="1"
     showguides="true"
     inkscape:guide-bbox="true" />
  <metadata
     id="metadata5">
    <rdf:RDF>
      <cc:Work
         rdf:about="">
        <dc:format>image/svg+xml</dc:format>
        <dc:type
           rdf:resource="http://purl.org/dc/dcmitype/StillImage" />
        <dc:title></dc:title>
      </cc:Work>
    </rdf:RDF>
  </metadata>
  <g
     inkscape:label="Calque 1"
     inkscape:groupmode="layer"
     id="layer1"
     transform="translate(0,622.9)">
    <path
       id="path873"
       transform="translate(-706,-622.9)"
       style="opacity:1;fill:none;fill-opacity:0.99095023;fill-rule:nonzero;stroke:none;stroke-width:2.26771665;stroke-linecap:round;stroke-linejoin:round;stroke-miterlimit:4;stroke-dasharray:none;stroke-dashoffset:0;stroke-opacity:0.94570139;paint-order:fill markers stroke"
       d="m 1321.1758,165.22656 c -1.5918,6.90302 -3.5039,13.73141 -5.7442,20.47266 -4.6067,14.3641 -13.0135,26.35951 -23.7089,36.78516 -1.3235,1.21466 -2.6847,2.35599 -4.0782,3.43554 -0.2489,4.12897 -0.8615,8.52853 -1.9082,13.20117 -0.1852,0.82712 -0.3654,1.65533 -0.5508,2.48243 3.101,8.24036 4.3376,18.80345 2.6954,31.56836 -0.4968,3.86076 -1.003,7.72127 -1.6114,11.5664 -0.5862,3.67355 -1.2465,7.33395 -1.875,11 -0.046,0.27962 -0.078,0.42105 -0.1054,0.54492 -0.01,0.13009 0,0.0669 0,0.23242 -0.7966,16.87759 -5.4882,29.3669 -12.0274,37.48047 0.019,2.59299 0.037,5.18646 0.055,7.7793 0.012,1.70386 -0.033,3.35355 -0.1094,4.96875 a 102.85714,104.28571 0 0 0 84.9356,-102.45898 102.85714,104.28571 0 0 0 -35.9668,-79.0586 z m -142.1485,8.10352 a 102.85714,104.28571 0 0 0 -27.5996,70.95508 102.85714,104.28571 0 0 0 42.8008,84.5039 c 2.8251,-8.21137 5.4092,-16.50259 7.9395,-24.80859 1.3708,-4.48711 2.6764,-8.99219 3.9375,-13.50977 -0.034,-2.63545 -0.065,-5.27095 -0.1016,-7.90625 -0.084,-5.91871 -0.1735,-11.83731 -0.2676,-17.75586 -0.1004,-6.47972 -0.2414,-12.9611 -0.1172,-19.4414 0.07,-4.48399 0.1498,-8.96753 0.2286,-13.45117 -3.5847,-2.35125 -7.0286,-5.23722 -10.6856,-8.80079 -6.6712,-7.56815 -10.2502,-16.79208 -12.7598,-26.40039 -1.0623,-4.12002 -1.7209,-8.32597 -2.373,-12.52539 -0.5924,-3.81451 -0.9108,-7.43097 -1.002,-10.85937 z" />
    <text
       xml:space="preserve"
       style="font-style:normal;font-variant:normal;font-weight:normal;font-stretch:normal;font-size:191.24234009px;line-height:1.25;font-family:Dyuthi;-inkscape-font-specification:'Dyuthi, Normal';font-variant-ligatures:normal;font-variant-caps:normal;font-variant-numeric:normal;text-align:start;letter-spacing:0px;word-spacing:0px;writing-mode:lr-tb;text-anchor:start;opacity:1;fill:#ff9300;fill-opacity:1;stroke:none;stroke-width:1"
       x="-358.38217"
       y="-32.232384"
       id="text2268"
       transform="scale(0.93745946,1.0667128)"><tspan
         sodipodi:role="line"
         x="-358.38217"
         y="-32.232384"
         id="tspan2266"
         style="stroke-width:1"><tspan
           x="-358.38217"
           y="-32.232384"
           style="fill:#ff9300;fill-opacity:1;stroke-width:1"
           id="tspan2264">TEC</tspan></tspan></text>
    <path
       id="path1692"
       d="m 46.610294,-32.464871 c 6.552501,0.03345 12.027291,-5.179631 13.601776,-12.228503 0.164507,0.0054 0.317876,0.05776 0.482398,0.0586 7.752445,0.03957 14.066162,-7.235036 14.099059,-16.250475 0.0045,-1.234355 -0.131542,-2.426082 -0.351067,-3.582521 6.399089,-3.017597 10.931488,-10.280903 10.962604,-18.806662 0.0117,-3.208324 -0.670588,-6.205959 -1.797039,-8.912561 5.277671,-3.495142 8.885952,-10.008247 8.913566,-17.575087 0.03102,-8.50282 -4.421882,-15.80433 -10.772361,-18.89976 0.201676,-1.1645 0.320132,-2.36512 0.324638,-3.59693 0.03698,-10.14013 -7.003218,-18.3985 -15.727455,-18.44304 -0.903787,-0.004 -1.777387,0.1312 -2.640111,0.29513 -2.074999,-7.28428 -7.899689,-12.59075 -14.864602,-12.62632 -8.724239,-0.0445 -15.824456,8.14166 -15.861456,18.2818 l -0.218272,59.81808 c 2.401663,-2.277979 40.742801,-8.917119 43.900033,-9.650813 1.0912,-0.254561 2.112077,0.729994 2.107352,2.023012 l -0.01509,4.126439 c -0.0038,0.91047 -0.521816,1.726493 -1.279472,1.947061 -5.314417,1.543906 -44.751289,12.084627 -44.775568,18.738453 l -0.06893,18.890334 c -0.0329,9.015422 6.227513,16.354218 13.979953,16.393791 z m -99.122548,-77.812169 c -0.02761,7.56685 3.533016,14.116553 8.784979,17.665443 -1.143978,2.695015 -1.850306,5.685561 -1.862013,8.893876 -0.03111,8.525768 4.448118,15.835074 10.824961,18.917889 -0.227972,1.154154 -0.372711,2.344447 -0.377216,3.578802 -0.0329,9.015441 6.227506,16.354235 13.979947,16.39381 0.164528,8.93e-4 0.318262,-0.04944 0.48281,-0.05368 1.52298,7.064684 6.95953,12.333461 13.5120311,12.36691 7.75244161,0.03957 14.0661666,-7.235037 14.0990626,-16.250476 l 0.06893,-18.890327 c 0.02428,-6.653815 -42.0051437,-16.257856 -47.3102997,-17.855973 -0.758197,-0.228304 -1.268523,-1.049579 -1.265201,-1.960049 l 0.01505,-4.126441 c 0.0048,-1.293018 1.034933,-2.267103 2.122048,-2.001414 3.151758,0.765901 44.113969,6.457302 46.5010987,8.759726 l 0.218274,-59.818096 c 0.037,-10.14014 -7.00320379,-18.3985 -15.7274504,-18.44305 -6.9649053,-0.0356 -12.8281023,5.21127 -14.9561793,12.4741 -0.861489,-0.17527 -1.734072,-0.31745 -2.637866,-0.32207 -8.724238,-0.0445 -15.824447,8.14167 -15.861447,18.28179 -0.0045,1.23182 0.105191,2.4336 0.298372,3.60012 -6.372827,3.03048 -10.878869,10.28625 -10.909896,18.78907 z"
       inkscape:connector-curvature="0"
       style="opacity:1;fill:#ff9300;fill-opacity:0.99095022;stroke-width:0.82076532"
       sodipodi:nodetypes="ccsscscscsscssccsscssccscscsscssscssccsscsscss" />
    <path
       id="path2000"
       d="m -395.81522,-441.04253 -11.81392,2.45316 c -3.26281,0.67752 -5.93095,4.17919 -5.96057,7.82261 l -0.0537,6.59314 -15.08711,3.13285 c -4.02902,-7.00243 -11.51873,-10.77803 -20.24215,-8.96658 l -23.6226,4.90524 c -32.61749,6.77299 -59.30174,41.79332 -59.60041,78.21935 l 35.54375,-20.55047 4.84977,4.44886 c 4.38936,4.02652 10.37551,5.55946 16.64271,4.25515 l 25.65335,-5.3269 c 8.7234,-1.8114 16.29992,-8.71547 20.45661,-17.41764 l 15.08713,-3.13282 -0.0536,6.59313 c -0.0295,3.64342 2.59057,6.047 5.85335,5.36946 l 11.81391,-2.45315 c 3.26278,-0.67749 5.93096,-4.17919 5.96059,-7.82262 l 0.42882,-52.76257 c 0.0268,-3.63415 -2.59323,-6.0377 -5.85536,-5.36105 z m -79.4514,95.50541 c -1.93158,0.4011 -3.81652,0.51608 -5.68532,0.56951 l -5.58767,144.69287 c -0.5583,14.50495 9.68633,24.30794 22.59911,21.62949 12.91281,-2.6784 23.35429,-16.77972 23.02775,-31.10387 l -3.25334,-142.83669 c -1.79572,0.6784 -3.59908,1.33806 -5.44714,1.7218 z"
       inkscape:connector-curvature="0"
       style="opacity:1;fill:#000002;fill-opacity:0.56862745;stroke-width:0.81598401"
       inkscape:transform-center-x="-65.273562"
       inkscape:transform-center-y="-283.23652" />
    <text
       xml:space="preserve"
       style="font-style:normal;font-variant:normal;font-weight:normal;font-stretch:normal;font-size:344.25674438px;line-height:1.25;font-family:Dyuthi;-inkscape-font-specification:'Dyuthi, Normal';font-variant-ligatures:normal;font-variant-caps:normal;font-variant-numeric:normal;font-feature-settings:normal;text-align:start;letter-spacing:0px;word-spacing:0px;writing-mode:lr-tb;text-anchor:start;fill:#000002;fill-opacity:0.56862745;stroke:none;stroke-width:8.60641861"
       x="-768.44501"
       y="-162.18175"
       id="text2375"
       transform="scale(0.9440434,1.0592733)"><tspan
         sodipodi:role="line"
         x="-768.44501"
         y="-162.18175"
         id="tspan2373"
         style="stroke-width:8.60641861"><tspan
           x="-768.44501"
           y="-162.18175"
           id="tspan2371"
           style="stroke-width:8.60641861">D AM</tspan></tspan></text>
    <rect
       style="opacity:1;fill:#fffefd;fill-opacity:0.95704052;fill-rule:nonzero;stroke:none;stroke-width:0.3106924;stroke-linecap:round;stroke-linejoin:round;stroke-miterlimit:4.5;stroke-dasharray:none;stroke-dashoffset:0;stroke-opacity:0.98039216;paint-order:fill markers stroke"
       id="rect2377"
       width="50.600819"
       height="1.7139333"
       x="-368.04565"
       y="-649.2818"
       transform="matrix(0.83244249,-0.55411145,0.48684788,0.87348677,0,0)" />
    <rect
       transform="matrix(0.82406754,-0.56649156,0.47494179,0.88001721,0,0)"
       y="-616.43121"
       x="-354.87521"
       height="1.455933"
       width="42.358788"
       id="rect2379"
       style="opacity:1;fill:#fffefd;fill-opacity:0.95704052;fill-rule:nonzero;stroke:none;stroke-width:0.26199761;stroke-linecap:round;stroke-linejoin:round;stroke-miterlimit:4.5;stroke-dasharray:none;stroke-dashoffset:0;stroke-opacity:0.98039216;paint-order:fill markers stroke" />
    <rect
       style="opacity:1;fill:#fffefd;fill-opacity:0.95704052;fill-rule:nonzero;stroke:none;stroke-width:1.13403487;stroke-linecap:round;stroke-linejoin:round;stroke-miterlimit:4.5;stroke-dasharray:none;stroke-dashoffset:0;stroke-opacity:0.98039216;paint-order:fill markers stroke"
       id="rect2381"
       width="83.341743"
       height="13.863741"
       x="-436.20358"
       y="-502.19067"
       transform="matrix(0.90340254,-0.42879349,0.37357753,0.92759896,0,0)" />
    <rect
       transform="matrix(0.82519255,-0.56485153,0.47651102,0.8791685,0,0)"
       y="-658.52332"
       x="-472.75424"
       height="1.8675836"
       width="54.440525"
       id="rect2386"
       style="opacity:1;fill:#fffefd;fill-opacity:0.95704052;fill-rule:nonzero;stroke:none;stroke-width:0.33640006;stroke-linecap:round;stroke-linejoin:round;stroke-miterlimit:4.5;stroke-dasharray:none;stroke-dashoffset:0;stroke-opacity:0.98039216;paint-order:fill markers stroke" />
    <rect
       style="opacity:1;fill:#fffefd;fill-opacity:0.95704052;fill-rule:nonzero;stroke:none;stroke-width:0.31676871;stroke-linecap:round;stroke-linejoin:round;stroke-miterlimit:4.5;stroke-dasharray:none;stroke-dashoffset:0;stroke-opacity:0.98039216;paint-order:fill markers stroke"
       id="rect2388"
       width="53.103657"
       height="1.6976585"
       x="-452.50348"
       y="-589.62714"
       transform="matrix(0.86250813,-0.5060432,0.53445696,0.84519569,0,0)" />
    <rect
       transform="matrix(0.89718417,-0.44165662,0.36198155,0.93218526,0,0)"
       y="-514.01617"
       x="-593.80566"
       height="11.767819"
       width="69.021362"
       id="rect2390"
       style="opacity:1;fill:#fffefd;fill-opacity:0.95704052;fill-rule:nonzero;stroke:none;stroke-width:0.95081192;stroke-linecap:round;stroke-linejoin:round;stroke-miterlimit:4.5;stroke-dasharray:none;stroke-dashoffset:0;stroke-opacity:0.98039216;paint-order:fill markers stroke" />
  </g>
  <g
     inkscape:groupmode="layer"
     id="layer2"
     inkscape:label="Calque 2" />
</svg>
