<?xml version="1.0" encoding="UTF-8" standalone="no"?>
<svg
   xmlns:dc="http://purl.org/dc/elements/1.1/"
   xmlns:cc="http://creativecommons.org/ns#"
   xmlns:rdf="http://www.w3.org/1999/02/22-rdf-syntax-ns#"
   xmlns:svg="http://www.w3.org/2000/svg"
   xmlns="http://www.w3.org/2000/svg"
   xmlns:sodipodi="http://sodipodi.sourceforge.net/DTD/sodipodi-0.dtd"
   xmlns:inkscape="http://www.inkscape.org/namespaces/inkscape"
   id="svg8"
   version="1.1"
   viewBox="0 0 11.377083 24"
   height="24"
   width="43"
   sodipodi:docname="Diamtech Logo Nav.svg"
   inkscape:version="0.92.4 (f8dce91, 2019-08-02)">
  <sodipodi:namedview
     pagecolor="#ffffff"
     bordercolor="#666666"
     borderopacity="1"
     objecttolerance="10"
     gridtolerance="10"
     guidetolerance="10"
     inkscape:pageopacity="0"
     inkscape:pageshadow="2"
     inkscape:window-width="1600"
     inkscape:window-height="846"
     id="namedview1837"
     showgrid="false"
     inkscape:zoom="9.8333333"
     inkscape:cx="21.5"
     inkscape:cy="12"
     inkscape:window-x="0"
     inkscape:window-y="25"
     inkscape:window-maximized="1"
     inkscape:current-layer="svg8" />
  <defs
     id="defs2" />
  <metadata
     id="metadata5">
    <rdf:RDF>
      <cc:Work
         rdf:about="">
        <dc:format>image/svg+xml</dc:format>
        <dc:type
           rdf:resource="http://purl.org/dc/dcmitype/StillImage" />
        <dc:title />
      </cc:Work>
    </rdf:RDF>
  </metadata>
  <g
     transform="translate(0,-273.1)"
     id="layer1"
     style="fill:#001534;fill-opacity:1">
    <path
       d="m 1321.1758,165.22656 c -1.5918,6.90302 -3.5039,13.73141 -5.7442,20.47266 -4.6067,14.3641 -13.0135,26.35951 -23.7089,36.78516 -1.3235,1.21466 -2.6847,2.35599 -4.0782,3.43554 -0.2489,4.12897 -0.8615,8.52853 -1.9082,13.20117 -0.1852,0.82712 -0.3654,1.65533 -0.5508,2.48243 3.101,8.24036 4.3376,18.80345 2.6954,31.56836 -0.4968,3.86076 -1.003,7.72127 -1.6114,11.5664 -0.5862,3.67355 -1.2465,7.33395 -1.875,11 -0.046,0.27962 -0.078,0.42105 -0.1054,0.54492 -0.01,0.13009 0,0.0669 0,0.23242 -0.7966,16.87759 -5.4882,29.3669 -12.0274,37.48047 0.019,2.59299 0.037,5.18646 0.055,7.7793 0.012,1.70386 -0.033,3.35355 -0.1094,4.96875 a 102.85714,104.28571 0 0 0 84.9356,-102.45898 102.85714,104.28571 0 0 0 -35.9668,-79.0586 z m -142.1485,8.10352 a 102.85714,104.28571 0 0 0 -27.5996,70.95508 102.85714,104.28571 0 0 0 42.8008,84.5039 c 2.8251,-8.21137 5.4092,-16.50259 7.9395,-24.80859 1.3708,-4.48711 2.6764,-8.99219 3.9375,-13.50977 -0.034,-2.63545 -0.065,-5.27095 -0.1016,-7.90625 -0.084,-5.91871 -0.1735,-11.83731 -0.2676,-17.75586 -0.1004,-6.47972 -0.2414,-12.9611 -0.1172,-19.4414 0.07,-4.48399 0.1498,-8.96753 0.2286,-13.45117 -3.5847,-2.35125 -7.0286,-5.23722 -10.6856,-8.80079 -6.6712,-7.56815 -10.2502,-16.79208 -12.7598,-26.40039 -1.0623,-4.12002 -1.7209,-8.32597 -2.373,-12.52539 -0.5924,-3.81451 -0.9108,-7.43097 -1.002,-10.85937 z"
       style="opacity:1;fill:#001534;fill-opacity:1;fill-rule:nonzero;stroke:none;stroke-width:2.26771665;stroke-linecap:round;stroke-linejoin:round;stroke-miterlimit:4;stroke-dasharray:none;stroke-dashoffset:0;stroke-opacity:0.94570139;paint-order:fill markers stroke"
       transform="translate(-706,-622.9)"
       id="path873" />
    <text
       transform="scale(0.9279231,1.0776755)"
       id="text2268"
       y="275.14429"
       x="1.1294622"
       style="font-style:normal;font-variant:normal;font-weight:normal;font-stretch:normal;font-size:10.55710983px;line-height:1.25;font-family:Dyuthi;-inkscape-font-specification:'Dyuthi, Normal';font-variant-ligatures:normal;font-variant-caps:normal;font-variant-numeric:normal;text-align:start;letter-spacing:0px;word-spacing:0px;writing-mode:lr-tb;text-anchor:start;opacity:1;fill:#001534;fill-opacity:1;stroke:none;stroke-width:0.05520279"
       xml:space="preserve"><tspan
         style="stroke-width:0.05520279;fill:#001534;fill-opacity:1"
         id="tspan2266"
         y="275.14429"
         x="1.1294622"><tspan
           id="tspan2264"
           style="fill:#001534;fill-opacity:1;stroke-width:0.05520279"
           y="275.14429"
           x="1.1294622">TEC</tspan></tspan></text>
    <path
       style="opacity:1;fill:#001534;fill-opacity:1;stroke-width:0.04530853"
       d="m 21.952645,296.6232 c 0.358037,0.002 0.657186,-0.28887 0.743218,-0.68198 0.009,3e-4 0.01737,0.003 0.02636,0.003 0.423604,0.002 0.768593,-0.4035 0.77039,-0.90629 2.46e-4,-0.0688 -0.0072,-0.1353 -0.01918,-0.19979 0.349654,-0.1683 0.59731,-0.57337 0.59901,-1.04885 6.39e-4,-0.17893 -0.03664,-0.34611 -0.09819,-0.49706 0.288379,-0.19492 0.48554,-0.55816 0.487049,-0.98016 0.0017,-0.47421 -0.241618,-0.88141 -0.588616,-1.05404 0.01102,-0.065 0.01749,-0.13191 0.01774,-0.20061 0.002,-0.56551 -0.382664,-1.02608 -0.859367,-1.02857 -0.04938,-2.2e-4 -0.09712,0.007 -0.144259,0.0165 -0.113381,-0.40624 -0.431649,-0.70218 -0.81222,-0.70417 -0.476704,-0.002 -0.864668,0.45406 -0.86669,1.01958 l -0.01193,3.33606 c 0.13123,-0.12704 2.226237,-0.49731 2.398752,-0.53823 0.05963,-0.0142 0.115407,0.0407 0.115149,0.11283 l -8.25e-4,0.23013 c -2.08e-4,0.0508 -0.02851,0.0963 -0.06991,0.10859 -0.290386,0.0861 -2.445265,0.67396 -2.446592,1.04504 l -0.0038,1.05352 c -0.0018,0.50279 0.340279,0.91208 0.763881,0.91428 z m -5.416178,-4.33959 c -0.0015,0.422 0.193048,0.78728 0.480022,0.9852 -0.06251,0.1503 -0.101103,0.31709 -0.101743,0.49601 -0.0017,0.47549 0.243051,0.88313 0.591489,1.05506 -0.01246,0.0644 -0.02037,0.13075 -0.02061,0.19959 -0.0018,0.50279 0.340278,0.91207 0.763881,0.91428 0.009,5e-5 0.01739,-0.003 0.02638,-0.003 0.08322,0.394 0.380277,0.68784 0.738314,0.6897 0.423603,0.002 0.768592,-0.4035 0.77039,-0.90629 l 0.0038,-1.05352 c 0.0013,-0.37108 -2.295212,-0.9067 -2.585093,-0.99582 -0.04143,-0.0127 -0.06931,-0.0585 -0.06913,-0.10932 l 8.22e-4,-0.23013 c 2.63e-4,-0.0721 0.05655,-0.12644 0.115952,-0.11162 0.172216,0.0427 2.410441,0.36013 2.540877,0.48853 l 0.01193,-3.33606 c 0.002,-0.56552 -0.382664,-1.02609 -0.859367,-1.02857 -0.380571,-0.002 -0.700944,0.29063 -0.817224,0.69568 -0.04707,-0.01 -0.09475,-0.0177 -0.144137,-0.018 -0.476703,-0.002 -0.864667,0.45406 -0.866689,1.01958 -2.46e-4,0.0687 0.0057,0.13572 0.0163,0.20078 -0.348219,0.16901 -0.594435,0.57366 -0.59613,1.04787 z"
       id="path1692" />
    <path
       d="m -10.867514,275.83252 c -0.387301,0 -1.205334,0.0497 -2.453946,0.14901 -0.219664,0.0199 -0.401684,0.11577 -0.546199,0.28789 -0.150296,0.17875 -0.225502,0.39722 -0.225502,0.65541 v 3.46918 l 2.331003,-1.62855 0.02754,0.052 v -0.57186 c 0,-0.28467 0.07796,-0.51632 0.234039,-0.69506 0.167638,-0.19199 0.370025,-0.288 0.60703,-0.288 h 0.0086 c 0.469185,0 0.9085627,0.0742 1.3188604,0.2209 l 1.6553523,-1.12466 c -0.8739974,-0.35074 -1.8595711,-0.52622 -2.9568167,-0.52622 z m 25.743917,0.13899 c -0.595403,0 -1.098294,0.23504 -1.508717,0.70508 -0.410423,0.47003 -0.615674,1.04601 -0.615674,1.72789 v 8.70885 c 0,0.33763 0.115619,0.63884 0.346844,0.90365 0.231224,0.26481 0.494285,0.39725 0.789095,0.39725 h 0.190712 c 0.323713,0 0.598336,-0.13244 0.82378,-0.39725 0.219663,-0.24495 0.326584,-0.54616 0.320803,-0.90365 l -0.164776,-7.84496 1.898889,7.62656 c 0.109831,0.43694 0.326644,0.80103 0.650358,1.09231 0.329495,0.28467 0.693643,0.42699 1.092504,0.42699 h 0.03468 c 0.387301,0 0.757283,-0.14232 1.1099,-0.42699 0.329495,-0.27804 0.549172,-0.64213 0.659003,-1.09231 l 1.881601,-7.62656 -0.156133,7.84496 c -0.0058,0.35749 0.106975,0.6654 0.338199,0.92358 0.225444,0.25157 0.497096,0.37732 0.81503,0.37732 h 0.0174 c 0.404643,0 0.728377,-0.13244 0.971163,-0.39725 0.231224,-0.25157 0.346843,-0.55278 0.346843,-0.90365 v -8.70885 c 0,-0.68188 -0.210978,-1.25786 -0.632963,-1.72789 -0.410423,-0.47004 -0.907586,-0.70508 -1.491428,-0.70508 h -0.02604 c -0.47401,0 -0.901801,0.16229 -1.283322,0.48668 -0.375739,0.33101 -0.629995,0.75468 -0.762949,1.27106 l -1.786299,7.1597 -1.803481,-7.17964 c -0.132954,-0.52299 -0.387316,-0.93997 -0.763056,-1.25112 -0.37574,-0.32439 -0.797697,-0.48668 -1.265926,-0.48668 z m -8.7229603,0.0199 c -0.3815203,0 -0.7572285,0.14891 -1.127189,0.44682 -0.3699588,0.2979 -0.6301554,0.69842 -0.7804516,1.20156 l -2.6272613,8.7387 c -0.1445151,0.47665 -0.086706,0.92348 0.173422,1.34055 0.2543467,0.41045 0.5983412,0.61576 1.0318865,0.61576 h 0.190711 c 0.3294949,0 0.6185431,-0.0993 0.8671094,-0.29792 0.2427857,-0.18536 0.3902269,-0.43697 0.4422524,-0.75474 l 0.4162127,-2.43297 h 3.2862645 l 0.4508967,2.4627 c 0.046244,0.29129 0.1935824,0.53303 0.4421454,0.72501 0.2312253,0.19861 0.4827235,0.29792 0.7544123,0.29792 h 0.1907105 c 0.4277648,0 0.7774868,-0.2119 1.0491758,-0.63559 0.254346,-0.41045 0.306429,-0.85069 0.156133,-1.32072 l -2.765999,-8.77835 c -0.1502956,-0.47665 -0.4104928,-0.86401 -0.7804516,-1.16191 -0.3757399,-0.29791 -0.7514491,-0.44682 -1.127189,-0.44682 z m -13.9592332,0.41065 -1.6520438,1.12227 c 0.5172902,0.20394 0.9870174,0.5264 1.4082925,0.96955 0.7110152,0.74808 1.0665711,1.73775 1.0665711,2.9691 0,0.20775 -0.00443,0.40694 -0.011312,0.60149 l 2.7338756,-1.32443 c -0.2390565,-1.22619 -0.7876545,-2.25568 -1.6460671,-3.08816 l -1.7869387,1.25363 -0.03778,-0.0715 1.7649544,-1.23816 c -0.040851,-0.0386 -0.081479,-0.0772 -0.1236898,-0.11492 -0.5124577,-0.45313 -1.0845032,-0.8126 -1.7158624,-1.07891 z m 14.1152596,2.16131 1.4047703,4.45867 H 4.8961611 Z m -18.0440921,0.30837 -2.358538,1.64773 v 2.21054 l 2.296426,-1.37508 0.04952,0.0799 -2.345944,1.40482 v 2.46826 l 2.358538,-1.185 z m 7.5842455,2.66923 -2.9024957,1.40613 c -0.1352206,1.31308 -0.4672601,2.24871 -0.9966686,2.80571 -0.7803822,0.82091 -1.7254908,1.23141 -2.8353682,1.23141 h -0.0086 c -0.231225,0 -0.433611,-0.096 -0.60703,-0.288 -0.156076,-0.18536 -0.234039,-0.41701 -0.234039,-0.69505 v -1.1495 l -2.358538,1.18501 v 1.21561 c 0,0.26481 0.07224,0.48998 0.216751,0.67534 0.150296,0.17875 0.341121,0.27476 0.572345,0.288 1.433591,0.0794 2.34115,0.11917 2.72267,0.11917 2.0694589,0 3.6851591,-0.57927 4.8470617,-1.73781 1.0751935,-1.09895 1.6127703,-2.54883 1.6127703,-4.34952 0,-0.24161 -0.00978,-0.47699 -0.028815,-0.7065 z m 6.7679999,-8.26192 -0.6455271,0.13681 c -0.178284,0.0378 -0.3240744,0.23308 -0.3256929,0.43627 l -0.00293,0.3677 -0.82437827,0.17472 c -0.22015061,-0.39053 -0.62939758,-0.60109 -1.10605598,-0.50007 l -1.29076795,0.27357 c -1.7822597,0.37773 -3.24032,2.33082 -3.2566397,4.3623 l 1.9421542,-1.1461 0.2649974,0.24811 c 0.2398401,0.22456 0.5669307,0.31005 0.9093782,0.23731 l 1.40173058,-0.29708 c 0.47665731,-0.10102 0.89064768,-0.48606 1.11777433,-0.97138 l 0.82437939,-0.17472 -0.00293,0.3677 c -0.00161,0.20319 0.1415519,0.33724 0.3198342,0.29945 l 0.6455266,-0.13681 c 0.1782823,-0.0378 0.324075,-0.23307 0.325694,-0.43627 l 0.023431,-2.94257 c 0.00146,-0.20268 -0.1416973,-0.33673 -0.319944,-0.29899 z m -4.3413222,5.32635 c -0.1055439,0.0224 -0.2085394,0.0288 -0.3106529,0.0318 l -0.3053172,8.06953 c -0.030506,0.80895 0.529273,1.35566 1.2348432,1.20628 0.70557183,-0.14937 1.27610714,-0.9358 1.2582646,-1.73466 l -0.1777665,-7.96602 c -0.09812035,0.0378 -0.19665816,0.0746 -0.29763843,0.096 z"
       style="font-style:normal;font-variant:normal;font-weight:normal;font-stretch:normal;font-size:344.25674438px;line-height:1.25;font-family:Dyuthi;-inkscape-font-specification:'Dyuthi, Normal';font-variant-ligatures:normal;font-variant-caps:normal;font-variant-numeric:normal;font-feature-settings:normal;text-align:start;letter-spacing:0px;word-spacing:0px;writing-mode:lr-tb;text-anchor:start;fill:#001534;fill-opacity:1;stroke:none;stroke-width:0.47509828"
       id="text2375" />
  </g>
  <g
     transform="translate(0,-896)"
     id="layer2"
     style="fill:#001534;fill-opacity:1" />
</svg>
