<?xml version="1.0" encoding="UTF-8" standalone="no"?>
<!-- Created with Inkscape (http://www.inkscape.org/) -->

<svg
   xmlns:dc="http://purl.org/dc/elements/1.1/"
   xmlns:cc="http://creativecommons.org/ns#"
   xmlns:rdf="http://www.w3.org/1999/02/22-rdf-syntax-ns#"
   xmlns:svg="http://www.w3.org/2000/svg"
   xmlns="http://www.w3.org/2000/svg"
   xmlns:sodipodi="http://sodipodi.sourceforge.net/DTD/sodipodi-0.dtd"
   xmlns:inkscape="http://www.inkscape.org/namespaces/inkscape"
   width="100"
   height="100"
   viewBox="0 0 26.458332 26.458334"
   version="1.1"
   id="svg8"
   inkscape:version="0.92.4 (f8dce91, 2019-08-02)"
   sodipodi:docname="Offre internet.svg">
  <defs
     id="defs2" />
  <sodipodi:namedview
     id="base"
     pagecolor="#ffffff"
     bordercolor="#666666"
     borderopacity="1.0"
     inkscape:pageopacity="0.0"
     inkscape:pageshadow="2"
     inkscape:zoom="1.979899"
     inkscape:cx="158.69901"
     inkscape:cy="79.167517"
     inkscape:document-units="mm"
     inkscape:current-layer="layer1"
     showgrid="false"
     units="px"
     inkscape:window-width="1600"
     inkscape:window-height="846"
     inkscape:window-x="0"
     inkscape:window-y="25"
     inkscape:window-maximized="1" />
  <metadata
     id="metadata5">
    <rdf:RDF>
      <cc:Work
         rdf:about="">
        <dc:format>image/svg+xml</dc:format>
        <dc:type
           rdf:resource="http://purl.org/dc/dcmitype/StillImage" />
        <dc:title></dc:title>
      </cc:Work>
    </rdf:RDF>
  </metadata>
  <g
     inkscape:label="Calque 1"
     inkscape:groupmode="layer"
     id="layer1"
     transform="translate(0,-270.54165)">
    <g
       id="g927"
       transform="matrix(0.18843969,0,0,0.18346745,0.33229358,241.27255)">
      <path
         style="fill:#ff0028;fill-opacity:1;stroke-width:0.09168494"
         inkscape:connector-curvature="0"
         d="m 50.195241,239.33619 c 0,13.28463 -8.676137,22.7388 -21.488882,22.7388 -12.284471,0 -22.2051727,-10.40239 -22.2051727,-23.28333 0,-12.88095 9.9207017,-23.28334 22.2051727,-23.28334 5.981072,0 11.013058,2.30018 14.89,6.09311 l -6.043745,6.09309 c -7.906118,-7.99895 -22.608088,-1.99035 -22.608088,11.09714 0,8.121 6.187006,14.7023 13.761833,14.7023 8.792532,0 12.087495,-6.60946 12.606809,-10.03625 H 28.706359 v -8.00834 h 21.139688 c 0.20593,1.19233 0.349194,2.33772 0.349194,3.88682 z"
         id="path972" />
      <path
         style="fill:#000028;fill-opacity:1;stroke-width:0.10885507"
         inkscape:connector-curvature="0"
         d="m 113.96738,190.1206 c 0.43101,-1.20608 0.67279,-2.52487 0.67279,-3.90003 0,-5.97405 -4.52035,-10.82092 -10.09196,-10.82092 -2.07096,0 -4.00525,0.67631 -5.603141,1.82603 -2.91196,-5.41046 -8.3469,-9.03998 -14.58079,-9.03998 -9.29302,0 -16.81994,8.0706 -16.81994,18.03487 0,0.30433 0.0105,0.60867 0.021,0.91301 -5.88698,2.22055 -10.11299,8.23968 -10.11299,15.31836 0,8.96107 6.78053,16.23138 15.13795,16.23138 h 38.685861 c 7.43231,0 13.45595,-6.45874 13.45595,-14.42789 0,-6.97724 -4.62548,-12.80475 -10.76476,-14.13483 z m -13.971071,9.99808 -11.08013,11.88047 c -0.65178,0.69885 -1.72405,0.69885 -2.37582,0 l -11.08014,-11.88047 c -1.06175,-1.13845 -0.30486,-3.0772 1.18791,-3.0772 h 6.87515 v -12.6244 c 0,-0.99192 0.7569,-1.80349 1.682,-1.80349 h 5.04598 c 0.9251,0 1.68199,0.81157 1.68199,1.80349 v 12.6244 h 6.87515 c 1.492781,0 2.249671,1.93875 1.18791,3.0772 z"
         id="path1101" />
      <path
         style="fill:#fff000;fill-opacity:1;stroke-width:0.11599479"
         inkscape:connector-curvature="0"
         d="m 99.204041,232.415 -31.083422,14.70896 c -8.586799,4.06335 -11.70721,15.45767 -6.972998,25.46215 4.734215,10.00449 15.52363,14.81654 24.110429,10.75319 4.351674,-2.05925 7.290553,-5.99864 8.52228,-10.68156 l 8.88792,-4.20584 c 4.40215,2.01691 9.32155,2.23769 13.66351,0.18304 8.5868,-4.06335 11.70721,-15.45766 6.973,-25.46215 -4.73422,-10.00448 -15.51392,-14.82114 -24.100719,-10.75779 z m -12.118595,30.6674 c 0.353464,0.74695 0.118127,1.60629 -0.522969,1.90967 l -5.051057,2.3902 2.784832,5.885 c 0.353455,0.74693 0.118114,1.60628 -0.522983,1.90965 l -3.885423,1.83862 c -0.641096,0.30337 -1.454821,-0.0596 -1.808276,-0.80648 l -2.784833,-5.885 -5.051057,2.39021 c -0.641096,0.30337 -1.454826,-0.0595 -1.80829,-0.80649 l -2.142176,-4.52692 c -0.35346,-0.74694 -0.118118,-1.60629 0.522978,-1.90966 l 5.051057,-2.39021 -2.784832,-5.88499 c -0.353459,-0.74694 -0.118126,-1.60629 0.522969,-1.90967 l 3.885424,-1.83861 c 0.641097,-0.30338 1.45483,0.0596 1.808289,0.80649 l 2.784833,5.88499 5.051057,-2.39021 c 0.641096,-0.30337 1.454821,0.0596 1.808281,0.8065 z m 21.514684,-0.76189 c -2.5741,1.21809 -5.81394,-0.22688 -7.23313,-3.22596 -1.419199,-2.99908 -0.4822,-6.42056 2.0919,-7.63865 2.57408,-1.21808 5.81393,0.22688 7.23312,3.22596 1.41919,2.99908 0.48219,6.42057 -2.09189,7.63865 z m 3.48649,-12.73108 c -2.5741,1.21809 -5.81393,-0.22687 -7.23313,-3.22596 -1.41919,-2.99907 -0.48219,-6.42055 2.09191,-7.63863 2.5741,-1.21809 5.81394,0.22687 7.23313,3.22594 1.41919,2.99909 0.48219,6.42056 -2.09191,7.63865 z"
         id="path1171" />
    </g>
  </g>
</svg>
