<?xml version="1.0" encoding="UTF-8" standalone="no"?>
<svg
   xmlns:dc="http://purl.org/dc/elements/1.1/"
   xmlns:cc="http://creativecommons.org/ns#"
   xmlns:rdf="http://www.w3.org/1999/02/22-rdf-syntax-ns#"
   xmlns:svg="http://www.w3.org/2000/svg"
   xmlns="http://www.w3.org/2000/svg"
   xmlns:sodipodi="http://sodipodi.sourceforge.net/DTD/sodipodi-0.dtd"
   xmlns:inkscape="http://www.inkscape.org/namespaces/inkscape"
   id="svg1207"
   version="1.1"
   viewBox="0 0 26.458332 26.458334"
   height="100"
   width="100"
   sodipodi:docname="Offre internet1.svg"
   inkscape:version="0.92.4 (f8dce91, 2019-08-02)">
  <sodipodi:namedview
     pagecolor="#ffffff"
     bordercolor="#666666"
     borderopacity="1"
     objecttolerance="10"
     gridtolerance="10"
     guidetolerance="10"
     inkscape:pageopacity="0"
     inkscape:pageshadow="2"
     inkscape:window-width="1600"
     inkscape:window-height="846"
     id="namedview869"
     showgrid="false"
     inkscape:zoom="3.6826121"
     inkscape:cx="79.624276"
     inkscape:cy="58.393659"
     inkscape:window-x="0"
     inkscape:window-y="25"
     inkscape:window-maximized="1"
     inkscape:current-layer="svg1207" />
  <defs
     id="defs1201" />
  <metadata
     id="metadata1204">
    <rdf:RDF>
      <cc:Work
         rdf:about="">
        <dc:format>image/svg+xml</dc:format>
        <dc:type
           rdf:resource="http://purl.org/dc/dcmitype/StillImage" />
        <dc:title></dc:title>
      </cc:Work>
    </rdf:RDF>
  </metadata>
  <g
     transform="matrix(0.21053579,0,0,0.22254804,-0.03290402,-38.477458)"
     id="layer1">
    <path
       style="fill:#10102a;fill-opacity:0.94117647;stroke-width:0.07592797"
       d="M 92.948239,270.99583 H 72.640073 c -0.062,1.36351 -1.232089,2.20254 -2.742261,2.20254 h -5.092536 c -1.565452,0 -2.765712,-1.20244 -2.744774,-2.20254 H 42.022885 c -0.737077,0 -1.34014,0.49558 -1.34014,1.10128 v 1.10126 c 0,2.42279 2.412254,4.40508 5.360563,4.40508 h 42.884504 c 2.948309,0 5.360566,-1.98229 5.360566,-4.40508 v -1.10126 c 0,-0.6057 -0.603064,-1.10128 -1.340139,-1.10128 z m -4.020427,-25.32918 c 0,-1.81708 -1.80919,-3.3038 -4.020418,-3.3038 H 50.06373 c -2.211233,0 -4.020422,1.48672 -4.020422,3.3038 v 23.12665 h 42.884504 z m -5.360559,18.72158 H 51.403869 v -17.6203 h 32.163384 z"
       id="path1861"
       inkscape:connector-curvature="0" />
    <path
       style="fill:#ff1035;fill-opacity:0.93665161;stroke-width:0.07695717"
       d="m 99.24305,222.05433 20.76298,-11.10876 c 1.90064,-1.01689 2.77909,-3.2473 1.96215,-4.98196 l -8.92441,-18.9498 c -0.81694,-1.73465 -3.01982,-2.31648 -4.92045,-1.29959 l -20.762981,11.10876 c -1.900638,1.01689 -2.779083,3.24731 -1.962149,4.98197 l 8.924409,18.94979 c 0.816938,1.73466 3.019811,2.31648 4.920451,1.29959 z m -14.802217,4.81828 5.551098,-9.18906 -4.870672,-10.34222 -10.226822,-0.73922 c -1.978063,-0.14271 -3.619202,1.96105 -2.830113,3.63657 l 7.949656,16.88004 c 0.78599,1.66895 3.345178,1.53365 4.426853,-0.24611 z"
       id="path2111"
       inkscape:connector-curvature="0" />
    <path
       style="stroke-width:0.1046823"
       d="M 31.397315,189.97804 H 10.296734 c -2.4962741,0 -4.5215521,2.50114 -4.5215521,5.58394 v 48.39423 c 0,3.0828 2.025278,5.58395 4.5215521,5.58395 h 21.100581 c 2.496271,0 4.521553,-2.50115 4.521553,-5.58395 v -48.39423 c 0,-3.0828 -2.025282,-5.58394 -4.521553,-5.58394 z m -10.550292,55.83949 c -1.667321,0 -3.014366,-1.66355 -3.014366,-3.72264 0,-2.05908 1.347045,-3.72263 3.014366,-3.72263 1.667324,0 3.01437,1.66355 3.01437,3.72263 0,2.05909 -1.347046,3.72264 -3.01437,3.72264 z"
       id="path2191"
       inkscape:connector-curvature="0" />
  </g>
</svg>
