<?xml version="1.0" encoding="UTF-8" standalone="no"?>
<svg
   xmlns:dc="http://purl.org/dc/elements/1.1/"
   xmlns:cc="http://creativecommons.org/ns#"
   xmlns:rdf="http://www.w3.org/1999/02/22-rdf-syntax-ns#"
   xmlns:svg="http://www.w3.org/2000/svg"
   xmlns="http://www.w3.org/2000/svg"
   xmlns:sodipodi="http://sodipodi.sourceforge.net/DTD/sodipodi-0.dtd"
   xmlns:inkscape="http://www.inkscape.org/namespaces/inkscape"
   id="svg2246"
   version="1.1"
   viewBox="0 0 26.458332 26.458334"
   height="100"
   width="100"
   sodipodi:docname="Offre maintenance.svg"
   inkscape:version="0.92.4 (f8dce91, 2019-08-02)">
  <sodipodi:namedview
     pagecolor="#ffffff"
     bordercolor="#666666"
     borderopacity="1"
     objecttolerance="10"
     gridtolerance="10"
     guidetolerance="10"
     inkscape:pageopacity="0"
     inkscape:pageshadow="2"
     inkscape:window-width="1600"
     inkscape:window-height="846"
     id="namedview923"
     showgrid="false"
     inkscape:zoom="2.6700352"
     inkscape:cx="65.493216"
     inkscape:cy="11.947543"
     inkscape:window-x="0"
     inkscape:window-y="25"
     inkscape:window-maximized="1"
     inkscape:current-layer="svg2246" />
  <defs
     id="defs2240" />
  <metadata
     id="metadata2243">
    <rdf:RDF>
      <cc:Work
         rdf:about="">
        <dc:format>image/svg+xml</dc:format>
        <dc:type
           rdf:resource="http://purl.org/dc/dcmitype/StillImage" />
        <dc:title></dc:title>
      </cc:Work>
    </rdf:RDF>
  </metadata>
  <g
     transform="matrix(0.222013,0,0,0.23961581,-0.43609912,-39.733064)"
     id="layer1">
    <path
       style="fill:#ed1b01;fill-opacity:1;stroke-width:0.10648695"
       d="m 26.726953,236.06254 c 7.570924,0 13.706908,-6.06762 13.706908,-13.55419 0,-7.48656 -6.135984,-13.55418 -13.706908,-13.55418 -7.570924,0 -13.706904,6.06762 -13.706904,13.55418 0,7.48657 6.13598,13.55419 13.706904,13.55419 z M 13.876728,253.8524 c 0,1.40837 1.145811,2.54142 2.570045,2.54142 1.424234,0 2.570045,-1.13305 2.570045,-2.54142 0,-1.40836 -1.145811,-2.54141 -2.570045,-2.54141 -1.424234,0 -2.570045,1.13305 -2.570045,2.54141 z m 23.130405,-14.33778 v 5.18871 c 3.90861,0.7836 6.853457,4.21451 6.853457,8.30194 v 4.41569 c 0,0.80478 -0.578261,1.50367 -1.381402,1.66251 l -3.448142,0.67771 c -0.460467,0.0953 -0.910225,-0.20119 -1.006604,-0.66711 l -0.331961,-1.66251 c -0.09638,-0.45534 0.203459,-0.91067 0.674635,-0.99539 l 2.066745,-0.41298 v -3.01792 c 0,-6.65003 -10.28018,-6.89358 -10.28018,0.2012 v 2.82731 l 2.066746,0.41298 c 0.460466,0.0953 0.760303,0.54004 0.674634,0.99539 l -0.331965,1.6625 c -0.09637,0.45534 -0.546132,0.75184 -1.006599,0.66712 l -3.341059,-0.44475 c -0.845974,-0.11648 -1.477776,-0.82595 -1.477776,-1.68368 v -4.63807 c 0,-4.08743 2.944843,-7.50775 6.853452,-8.30194 v -4.78632 c -0.235586,0.0741 -0.471172,0.11648 -0.706763,0.2012 -1.927533,0.66712 -3.994275,1.03773 -6.146689,1.03773 -2.15241,0 -4.219156,-0.37061 -6.146689,-1.03773 -0.792432,-0.27532 -1.595569,-0.44475 -2.420129,-0.55064 v 8.64079 c 2.47367,0.73066 4.283411,2.97556 4.283411,5.65464 0,3.27206 -2.687838,5.92995 -5.996773,5.92995 -3.308931,0 -5.996773,-2.65789 -5.996773,-5.92995 0,-2.67908 1.80974,-4.92398 4.283411,-5.65464 v -8.51373 c -6.8106198,1.13306 -12.0042508,6.93594 -12.0042508,13.98835 v 4.74396 c 0,2.61554 2.15241,4.74397 4.797416,4.74397 H 45.916624 c 2.645004,0 4.797416,-2.12843 4.797416,-4.74397 v -4.74396 c 0,-7.62423 -6.082435,-13.79774 -13.706907,-14.16836 z"
       id="path2959"
       inkscape:connector-curvature="0" />
    <path
       style="fill:#000024;fill-opacity:1;stroke-width:0.0881572"
       d="M 118.6556,206.47174 108.33283,196.1481 c -2.03634,-2.03652 -5.07765,-2.43324 -7.52831,-1.22544 l -9.397165,-9.39795 v -5.4748 l -11.283649,-8.46344 -5.641824,5.6423 8.462736,11.28459 h 5.474333 l 9.397165,9.39796 c -1.198889,2.45087 -0.81101,5.49242 1.225331,7.52894 l 10.322773,10.32364 c 1.28704,1.28715 3.36747,1.28715 4.64569,0 l 4.64569,-4.64608 c 1.27823,-1.28715 1.27823,-3.36775 0,-4.64608 z m -14.9332,-15.04907 c 2.49474,0 4.83963,0.96977 6.6027,2.73299 l 1.71017,1.71032 c 1.39283,-0.60831 2.71514,-1.45465 3.86112,-2.60074 3.2705,-3.27078 4.38124,-7.87277 3.34103,-12.0516 -0.19394,-0.79345 -1.19008,-1.06675 -1.77189,-0.48488 l -6.55862,6.55917 -5.98563,-0.99622 -0.99613,-5.98613 6.55862,-6.55917 c 0.58181,-0.58186 0.29972,-1.57808 -0.50247,-1.78085 -4.17848,-1.03148 -8.78009,0.0793 -12.041772,3.3413 -2.512373,2.51258 -3.69363,5.82743 -3.631923,9.13347 l 7.237405,7.23801 c 0.71404,-0.16751 1.45452,-0.25567 2.17739,-0.25567 z m -9.15915,7.22919 -4.998304,-4.99872 -13.434594,13.44454 c -2.203838,2.20403 -2.203838,5.77454 0,7.97857 2.203838,2.20402 5.774055,2.20402 7.977892,0 l 10.895774,-10.89669 c -0.669966,-1.75441 -0.87272,-3.66749 -0.440768,-5.5277 z m -14.439544,14.54656 c -1.163627,0 -2.115684,-0.95214 -2.115684,-2.11587 0,-1.17254 0.943242,-2.11586 2.115684,-2.11586 1.172442,0 2.115684,0.94332 2.115684,2.11586 0,1.16373 -0.943242,2.11587 -2.115684,2.11587 z"
       id="path3069"
       inkscape:connector-curvature="0" />
  </g>
</svg>
